<svg xmlns="http://www.w3.org/2000/svg" width="24" height="22.234" viewBox="0 0 24 22.234"><path d="M12.1,7.937v7.6a.446.446,0,0,0,.5.437h1.4a.446.446,0,0,0,.5-.437v-7.6a.446.446,0,0,0-.5-.437H12.6A.446.446,0,0,0,12.1,7.937Z" transform="translate(-1.329 -0.86)" fill="#ae132a"/><path d="M13.963,18.2H12.618a.489.489,0,0,0-.518.518v1.449a.489.489,0,0,0,.518.518h1.346a.489.489,0,0,0,.518-.518V18.718C14.585,18.511,14.274,18.2,13.963,18.2Z" transform="translate(-1.323 -2.154)" fill="#ae132a"/><path d="M23.658,19.006,13.8,1.076a2.185,2.185,0,0,0-3.765,0L.169,19.006a2.284,2.284,0,0,0,0,2.152,2.152,2.152,0,0,0,1.793,1.076H21.6a1.972,1.972,0,0,0,1.793-1.076A1.8,1.8,0,0,0,23.658,19.006Zm-21.516.986L12,2.062l9.862,17.93Z" transform="translate(0.1)" fill="#ae132a"/></svg>