<svg xmlns="http://www.w3.org/2000/svg" width="16" height="16" viewBox="0 0 16 16"><g style="isolation:isolate"><path d="M8,0a8,8,0,1,0,8,8A7.994,7.994,0,0,0,8,0ZM8,14.439A6.439,6.439,0,1,1,14.439,8,6.454,6.454,0,0,1,8,14.439Z" transform="translate(0 0)" fill="#0077c8" opacity="0.8"/><path d="M12.362,9.2h-.93a.314.314,0,0,0-.332.332v5.781a.314.314,0,0,0,.332.332h.93a.314.314,0,0,0,.332-.332V9.532A.314.314,0,0,0,12.362,9.2Z" transform="translate(-3.897 -3.3)" fill="#0077c8" opacity="0.8"/><path d="M12.4,5.7h-.864a.314.314,0,0,0-.332.332v.93a.314.314,0,0,0,.332.332H12.4a.314.314,0,0,0,.332-.332v-.93A.314.314,0,0,0,12.4,5.7Z" transform="translate(-3.932 -2.001)" fill="#0077c8" opacity="0.8"/></g></svg>