<svg xmlns="http://www.w3.org/2000/svg" width="30.083" height="20" viewBox="0 0 30.083 20"><path d="M28.885,0a1.493,1.493,0,0,0-.632.166L15.042,8.985,1.8.166A1.356,1.356,0,0,0,1.2,0,1.186,1.186,0,0,0,0,1.165V18.8a1.186,1.186,0,0,0,1.2,1.165,1.356,1.356,0,0,0,.6-.166l8.186-5.458,4.027,5.125a1.4,1.4,0,0,0,1.032.5,1.291,1.291,0,0,0,1.032-.5L20.1,14.343l8.253,5.524a1.566,1.566,0,0,0,.532.133,1.186,1.186,0,0,0,1.2-1.165V1.2A1.237,1.237,0,0,0,28.885,0ZM8.985,13.045,1.664,17.9V3.661Zm4.559-3.062-3.195,2.13L3.361,3.161ZM18.7,13.411,15.042,18.1l-3.661-4.692,3.661-2.463Zm8.02-10.25-6.988,8.952-3.228-2.13Zm1.7.5V17.9L21.1,13.012Z" fill="#0077c8"/></svg>