<svg id="Group_1742" data-name="Group 1742" xmlns="http://www.w3.org/2000/svg" width="119.135" height="20" viewBox="0 0 119.135 20">
  <path id="Path_1" data-name="Path 1" d="M28.885,0a1.493,1.493,0,0,0-.632.166L15.042,8.985,1.8.166A1.356,1.356,0,0,0,1.2,0,1.186,1.186,0,0,0,0,1.165V18.8a1.186,1.186,0,0,0,1.2,1.165,1.356,1.356,0,0,0,.6-.166l8.186-5.458,4.027,5.125a1.4,1.4,0,0,0,1.032.5,1.291,1.291,0,0,0,1.032-.5L20.1,14.343l8.253,5.524a1.566,1.566,0,0,0,.532.133,1.186,1.186,0,0,0,1.2-1.165V1.2A1.237,1.237,0,0,0,28.885,0ZM8.985,13.045,1.664,17.9V3.661Zm4.559-3.062-3.195,2.13L3.361,3.161ZM18.7,13.411,15.042,18.1l-3.661-4.692,3.661-2.463Zm8.02-10.25-6.988,8.952-3.228-2.13Zm1.7.5V17.9L21.1,13.012Z" transform="translate(0 0)" fill="#fff"/>
  <g id="Group_1" data-name="Group 1" transform="translate(35.94 5.458)">
    <path id="Path_2" data-name="Path 2" d="M116.619,25.686h-1.2a.192.192,0,0,1-.2-.2V19.829l-2.562,3.627c-.067.067-.1.1-.166.1h-.166a.183.183,0,0,1-.166-.1L109.6,19.829v5.657a.215.215,0,0,1-.2.2h-1.2a.215.215,0,0,1-.2-.2V17.3a.192.192,0,0,1,.2-.2h1.364a.183.183,0,0,1,.166.1l2.729,3.927,2.729-3.927c.067-.067.1-.1.166-.1h1.364a.215.215,0,0,1,.2.2v8.186c-.1.1-.166.2-.3.2Z" transform="translate(-108 -16.867)" fill="#fff"/>
    <path id="Path_3" data-name="Path 3" d="M310.992,25.518a4.315,4.315,0,0,1-4.592-4.526,4.3,4.3,0,0,1,4.526-4.393,4.764,4.764,0,0,1,3.428,1.3c.133.1.1.2.033.3l-.8.932a.215.215,0,0,1-.3.033,3.136,3.136,0,0,0-2.4-.965,2.655,2.655,0,0,0-2.8,2.8,2.771,2.771,0,0,0,2.928,3.028,3.714,3.714,0,0,0,2.063-.666V21.924h-2.329a.215.215,0,0,1-.2-.2V20.593a.215.215,0,0,1,.2-.2h3.727a.192.192,0,0,1,.2.2v3.361c0,.1-.067.166-.133.266a5.692,5.692,0,0,1-3.561,1.3Z" transform="translate(-240.377 -16.533)" fill="#fff"/>
    <path id="Path_4" data-name="Path 4" d="M283.294,25.852c-1.963,0-3.294-1.165-3.294-3.494V17.3a.215.215,0,0,1,.2-.2h1.2a.192.192,0,0,1,.2.2v4.958c0,1.165.4,2.1,1.9,2.1a2.111,2.111,0,0,0,2.263-2.363V17.3a.215.215,0,0,1,.2-.2h1.2a.192.192,0,0,1,.2.2v8.186a.215.215,0,0,1-.2.2h-1.2a.215.215,0,0,1-.2-.2v-.765a2.791,2.791,0,0,1-2.463,1.131Z" transform="translate(-222.762 -16.867)" fill="#fff"/>
    <path id="Path_5" data-name="Path 5" d="M256.493,16.6a7.291,7.291,0,0,0-3.062.7.223.223,0,0,0-.1.266l.366,1a.234.234,0,0,0,.3.133,5.2,5.2,0,0,1,2.4-.6c1.032,0,2.23.366,2.23,2.063a9.377,9.377,0,0,0-2.3-.3c-2.3,0-3.727,1.1-3.727,2.862,0,1.83,1.631,2.762,3.261,2.762a3.93,3.93,0,0,0,2.762-1.065v.7a.215.215,0,0,0,.2.2h1.165a.215.215,0,0,0,.2-.2V20.127C260.187,17.831,258.889,16.6,256.493,16.6Zm2.1,5.524a2.271,2.271,0,0,1-2.529,2.03c-.9,0-1.83-.433-1.83-1.431,0-.932.8-1.5,2.163-1.5a8.073,8.073,0,0,1,2.163.3v.6Z" transform="translate(-204.48 -16.533)" fill="#fff"/>
    <path id="Path_6" data-name="Path 6" d="M209.634,25.385a5.834,5.834,0,0,1-3.594-1.265.211.211,0,0,1-.033-.3l.632-.865a.2.2,0,0,1,.3-.067,4.621,4.621,0,0,0,2.762,1c.9,0,1.531-.433,1.531-1.1s-.832-1-1.93-1.3c-1.231-.333-2.928-.8-2.928-2.529,0-1.531,1.265-2.562,3.062-2.562a5.83,5.83,0,0,1,3.128.932.254.254,0,0,1,.067.3l-.532.865c-.1.133-.166.166-.3.1a4.4,4.4,0,0,0-2.363-.732c-.832,0-1.4.4-1.4,1,0,.632.932.9,2,1.231,1.131.333,2.829.865,2.829,2.562-.067,1.664-1.331,2.729-3.228,2.729Z" transform="translate(-173.361 -16.4)" fill="#fff"/>
    <path id="Path_7" data-name="Path 7" d="M233.059,25.385a6.067,6.067,0,0,1-3.161-.965.217.217,0,0,1-.067-.3l.632-.9a.209.209,0,0,1,.266-.067,4.443,4.443,0,0,0,2.363.732c.9,0,1.531-.433,1.531-1.1s-.832-1-1.93-1.3c-1.231-.333-2.9-.8-2.9-2.529,0-1.531,1.265-2.562,3.062-2.562a5.83,5.83,0,0,1,3.128.932.254.254,0,0,1,.067.3l-.566.9a.2.2,0,0,1-.3.067,4.53,4.53,0,0,0-2.363-.732c-.832,0-1.4.4-1.4.965,0,.632.965.932,2,1.231,1.131.333,2.862.865,2.862,2.562-.033,1.7-1.331,2.762-3.228,2.762Z" transform="translate(-189.265 -16.4)" fill="#fff"/>
    <path id="Path_8" data-name="Path 8" d="M198.531,25.686H197.3a.192.192,0,0,1-.2-.2V17.3a.215.215,0,0,1,.2-.2h1.231a.215.215,0,0,1,.2.2v8.186c.033.1-.066.2-.2.2Z" transform="translate(-167.449 -16.867)" fill="#fff"/>
    <path id="Path_9" data-name="Path 9" d="M153.034,25.385a5.834,5.834,0,0,1-3.594-1.265.211.211,0,0,1-.033-.3l.632-.865a.2.2,0,0,1,.3-.067,4.621,4.621,0,0,0,2.762,1c.9,0,1.531-.433,1.531-1.1s-.832-1-1.93-1.3c-1.231-.333-2.928-.8-2.928-2.529,0-1.531,1.265-2.562,3.062-2.562a5.83,5.83,0,0,1,3.128.932.254.254,0,0,1,.067.3l-.532.865c-.1.133-.166.166-.3.1a4.4,4.4,0,0,0-2.363-.732c-.832,0-1.4.4-1.4,1,0,.632.932.9,2,1.231,1.131.333,2.829.865,2.829,2.562-.033,1.664-1.331,2.729-3.228,2.729Z" transform="translate(-135.597 -16.4)" fill="#fff"/>
    <path id="Path_10" data-name="Path 10" d="M176.559,25.385a6.067,6.067,0,0,1-3.161-.965.217.217,0,0,1-.067-.3l.632-.9a.209.209,0,0,1,.266-.067,4.443,4.443,0,0,0,2.363.732c.9,0,1.531-.433,1.531-1.1s-.832-1-1.93-1.3c-1.231-.333-2.9-.8-2.9-2.529,0-1.531,1.265-2.562,3.062-2.562a5.83,5.83,0,0,1,3.128.932.254.254,0,0,1,.067.3l-.566.9a.2.2,0,0,1-.3.067,4.53,4.53,0,0,0-2.363-.732c-.832,0-1.4.4-1.4.965,0,.632.965.932,2,1.231,1.131.333,2.862.865,2.862,2.562-.067,1.7-1.331,2.762-3.228,2.762Z" transform="translate(-151.567 -16.4)" fill="#fff"/>
    <path id="Path_11" data-name="Path 11" d="M142.1,25.686h-1.2a.192.192,0,0,1-.2-.2V17.3a.215.215,0,0,1,.2-.2h1.2a.215.215,0,0,1,.2.2v8.186a.215.215,0,0,1-.2.2Z" transform="translate(-129.818 -16.867)" fill="#fff"/>
    <path id="Path_12" data-name="Path 12" d="M339.094,16.6a7.292,7.292,0,0,0-3.062.7.223.223,0,0,0-.1.266l.366,1a.234.234,0,0,0,.3.133,5.2,5.2,0,0,1,2.4-.6c1.032,0,2.23.366,2.23,2.063a9.377,9.377,0,0,0-2.3-.3c-2.3,0-3.727,1.1-3.727,2.862,0,1.83,1.631,2.762,3.261,2.762a3.93,3.93,0,0,0,2.762-1.065v.7a.215.215,0,0,0,.2.2h1.165a.215.215,0,0,0,.2-.2V20.127C342.787,17.831,341.49,16.6,339.094,16.6Zm2.1,5.524a2.271,2.271,0,0,1-2.529,2.03c-.9,0-1.83-.433-1.83-1.431,0-.932.8-1.5,2.163-1.5a8.073,8.073,0,0,1,2.163.3v.6Z" transform="translate(-259.593 -16.533)" fill="#fff"/>
  </g>
</svg>
